<svg id="visual" viewBox="0 0 900 600" width="900" height="600" xmlns="http://www.w3.org/2000/svg" xmlns:xlink="http://www.w3.org/1999/xlink" version="1.1"><rect x="0" y="0" width="900" height="600" fill="#fff"></rect><path d="M263 0L255.7 16.7C248.3 33.3 233.7 66.7 220.2 100C206.7 133.3 194.3 166.7 199 200C203.7 233.3 225.3 266.7 238.5 300C251.7 333.3 256.3 366.7 252.8 400C249.3 433.3 237.7 466.7 227.8 500C218 533.3 210 566.7 206 583.3L202 600L0 600L0 583.3C0 566.7 0 533.3 0 500C0 466.7 0 433.3 0 400C0 366.7 0 333.3 0 300C0 266.7 0 233.3 0 200C0 166.7 0 133.3 0 100C0 66.7 0 33.3 0 16.7L0 0Z" fill="#343434" stroke-linecap="round" stroke-linejoin="miter"></path></svg>